<mxfile host="app.diagrams.net" agent="Mozilla/5.0 (Windows NT 10.0; Win64; x64) AppleWebKit/537.36 (KHTML, like Gecko) Chrome/130.0.0.0 Safari/537.36" version="24.8.6" pages="6">
  <diagram id="DzCDV776ZDjqNlLtxNya" name="Trang-1">
    <mxGraphModel dx="1434" dy="772" grid="1" gridSize="10" guides="1" tooltips="1" connect="1" arrows="1" fold="1" page="1" pageScale="1" pageWidth="827" pageHeight="1169" math="0" shadow="0">
      <root>
        <mxCell id="0" />
        <mxCell id="1" parent="0" />
        <mxCell id="0Mwu5GW-D-43VvFMsvS_-1" value="Start" style="ellipse;whiteSpace=wrap;html=1;" vertex="1" parent="1">
          <mxGeometry x="330" y="70" width="120" height="80" as="geometry" />
        </mxCell>
        <mxCell id="0Mwu5GW-D-43VvFMsvS_-2" value="Nhập a,b" style="shape=parallelogram;perimeter=parallelogramPerimeter;whiteSpace=wrap;html=1;fixedSize=1;" vertex="1" parent="1">
          <mxGeometry x="330" y="230" width="120" height="60" as="geometry" />
        </mxCell>
        <mxCell id="0Mwu5GW-D-43VvFMsvS_-3" value="a&amp;lt;b" style="rhombus;whiteSpace=wrap;html=1;" vertex="1" parent="1">
          <mxGeometry x="330" y="340" width="100" height="80" as="geometry" />
        </mxCell>
        <mxCell id="0Mwu5GW-D-43VvFMsvS_-4" value="a là số nhỏ hơn" style="shape=parallelogram;perimeter=parallelogramPerimeter;whiteSpace=wrap;html=1;fixedSize=1;" vertex="1" parent="1">
          <mxGeometry x="180" y="470" width="120" height="60" as="geometry" />
        </mxCell>
        <mxCell id="0Mwu5GW-D-43VvFMsvS_-5" value="b là số nhỏ hơn" style="shape=parallelogram;perimeter=parallelogramPerimeter;whiteSpace=wrap;html=1;fixedSize=1;" vertex="1" parent="1">
          <mxGeometry x="430" y="470" width="120" height="60" as="geometry" />
        </mxCell>
        <mxCell id="0Mwu5GW-D-43VvFMsvS_-6" value="kết thúc" style="ellipse;whiteSpace=wrap;html=1;" vertex="1" parent="1">
          <mxGeometry x="300" y="560" width="120" height="80" as="geometry" />
        </mxCell>
        <mxCell id="0Mwu5GW-D-43VvFMsvS_-7" value="" style="endArrow=classic;html=1;rounded=0;exitX=0.442;exitY=0.963;exitDx=0;exitDy=0;exitPerimeter=0;entryX=0.5;entryY=0;entryDx=0;entryDy=0;" edge="1" parent="1" source="0Mwu5GW-D-43VvFMsvS_-1" target="0Mwu5GW-D-43VvFMsvS_-2">
          <mxGeometry width="50" height="50" relative="1" as="geometry">
            <mxPoint x="340" y="200" as="sourcePoint" />
            <mxPoint x="390" y="220" as="targetPoint" />
          </mxGeometry>
        </mxCell>
        <mxCell id="0Mwu5GW-D-43VvFMsvS_-8" value="" style="endArrow=classic;html=1;rounded=0;exitX=0.442;exitY=1.05;exitDx=0;exitDy=0;exitPerimeter=0;entryX=0.5;entryY=0;entryDx=0;entryDy=0;" edge="1" parent="1" source="0Mwu5GW-D-43VvFMsvS_-2" target="0Mwu5GW-D-43VvFMsvS_-3">
          <mxGeometry width="50" height="50" relative="1" as="geometry">
            <mxPoint x="350" y="340" as="sourcePoint" />
            <mxPoint x="400" y="290" as="targetPoint" />
          </mxGeometry>
        </mxCell>
        <mxCell id="0Mwu5GW-D-43VvFMsvS_-11" value="" style="endArrow=none;html=1;rounded=0;" edge="1" parent="1">
          <mxGeometry width="50" height="50" relative="1" as="geometry">
            <mxPoint x="270" y="420" as="sourcePoint" />
            <mxPoint x="500" y="420" as="targetPoint" />
          </mxGeometry>
        </mxCell>
        <mxCell id="0Mwu5GW-D-43VvFMsvS_-12" value="" style="endArrow=classic;html=1;rounded=0;entryX=0.75;entryY=0;entryDx=0;entryDy=0;" edge="1" parent="1" target="0Mwu5GW-D-43VvFMsvS_-4">
          <mxGeometry width="50" height="50" relative="1" as="geometry">
            <mxPoint x="270" y="420" as="sourcePoint" />
            <mxPoint x="300" y="420" as="targetPoint" />
          </mxGeometry>
        </mxCell>
        <mxCell id="0Mwu5GW-D-43VvFMsvS_-13" value="" style="endArrow=classic;html=1;rounded=0;entryX=0.592;entryY=-0.017;entryDx=0;entryDy=0;entryPerimeter=0;" edge="1" parent="1" target="0Mwu5GW-D-43VvFMsvS_-5">
          <mxGeometry width="50" height="50" relative="1" as="geometry">
            <mxPoint x="390" y="420" as="sourcePoint" />
            <mxPoint x="440" y="370" as="targetPoint" />
            <Array as="points">
              <mxPoint x="499" y="420" />
            </Array>
          </mxGeometry>
        </mxCell>
        <mxCell id="0Mwu5GW-D-43VvFMsvS_-14" value="" style="endArrow=classic;html=1;rounded=0;entryX=0;entryY=0;entryDx=0;entryDy=0;exitX=0.642;exitY=1.05;exitDx=0;exitDy=0;exitPerimeter=0;" edge="1" parent="1" source="0Mwu5GW-D-43VvFMsvS_-4" target="0Mwu5GW-D-43VvFMsvS_-6">
          <mxGeometry width="50" height="50" relative="1" as="geometry">
            <mxPoint x="390" y="420" as="sourcePoint" />
            <mxPoint x="440" y="370" as="targetPoint" />
          </mxGeometry>
        </mxCell>
        <mxCell id="0Mwu5GW-D-43VvFMsvS_-15" value="" style="endArrow=classic;html=1;rounded=0;entryX=0.908;entryY=0.163;entryDx=0;entryDy=0;entryPerimeter=0;exitX=0.333;exitY=1.017;exitDx=0;exitDy=0;exitPerimeter=0;" edge="1" parent="1" source="0Mwu5GW-D-43VvFMsvS_-5" target="0Mwu5GW-D-43VvFMsvS_-6">
          <mxGeometry width="50" height="50" relative="1" as="geometry">
            <mxPoint x="390" y="420" as="sourcePoint" />
            <mxPoint x="440" y="370" as="targetPoint" />
          </mxGeometry>
        </mxCell>
        <mxCell id="0Mwu5GW-D-43VvFMsvS_-20" value="đúng" style="text;html=1;align=center;verticalAlign=middle;resizable=0;points=[];autosize=1;strokeColor=none;fillColor=none;" vertex="1" parent="1">
          <mxGeometry x="290" y="390" width="50" height="30" as="geometry" />
        </mxCell>
        <mxCell id="0Mwu5GW-D-43VvFMsvS_-21" value="sai" style="text;html=1;align=center;verticalAlign=middle;resizable=0;points=[];autosize=1;strokeColor=none;fillColor=none;" vertex="1" parent="1">
          <mxGeometry x="420" y="388" width="40" height="30" as="geometry" />
        </mxCell>
        <mxCell id="BA1SxX8Wqcj_CGappfCQ-1" value="Bài 1:" style="text;html=1;align=center;verticalAlign=middle;resizable=0;points=[];autosize=1;strokeColor=none;fillColor=none;" vertex="1" parent="1">
          <mxGeometry x="15" y="38" width="50" height="30" as="geometry" />
        </mxCell>
      </root>
    </mxGraphModel>
  </diagram>
  <diagram id="qpnnLVezksGCwjltlMf8" name="Trang-2">
    <mxGraphModel dx="1434" dy="772" grid="1" gridSize="10" guides="1" tooltips="1" connect="1" arrows="1" fold="1" page="1" pageScale="1" pageWidth="827" pageHeight="1169" math="0" shadow="0">
      <root>
        <mxCell id="0" />
        <mxCell id="1" parent="0" />
        <mxCell id="1d8U-x8DRXHJggn5LQJR-1" value="Start" style="ellipse;whiteSpace=wrap;html=1;" parent="1" vertex="1">
          <mxGeometry x="310" y="30" width="120" height="80" as="geometry" />
        </mxCell>
        <mxCell id="1d8U-x8DRXHJggn5LQJR-2" value="Nhập a,b" style="shape=parallelogram;perimeter=parallelogramPerimeter;whiteSpace=wrap;html=1;fixedSize=1;" parent="1" vertex="1">
          <mxGeometry x="300" y="160" width="120" height="60" as="geometry" />
        </mxCell>
        <mxCell id="1d8U-x8DRXHJggn5LQJR-3" value="tính n%2" style="rounded=0;whiteSpace=wrap;html=1;" parent="1" vertex="1">
          <mxGeometry x="294" y="280" width="120" height="60" as="geometry" />
        </mxCell>
        <mxCell id="1d8U-x8DRXHJggn5LQJR-4" value="n%2=0" style="rhombus;whiteSpace=wrap;html=1;" parent="1" vertex="1">
          <mxGeometry x="300" y="390" width="100" height="80" as="geometry" />
        </mxCell>
        <mxCell id="1d8U-x8DRXHJggn5LQJR-5" value="n là số chẵn" style="shape=parallelogram;perimeter=parallelogramPerimeter;whiteSpace=wrap;html=1;fixedSize=1;" parent="1" vertex="1">
          <mxGeometry x="160" y="520" width="120" height="60" as="geometry" />
        </mxCell>
        <mxCell id="1d8U-x8DRXHJggn5LQJR-6" value="n là số lẻ" style="shape=parallelogram;perimeter=parallelogramPerimeter;whiteSpace=wrap;html=1;fixedSize=1;" parent="1" vertex="1">
          <mxGeometry x="390" y="520" width="120" height="60" as="geometry" />
        </mxCell>
        <mxCell id="1d8U-x8DRXHJggn5LQJR-7" value="kết thúc" style="ellipse;whiteSpace=wrap;html=1;" parent="1" vertex="1">
          <mxGeometry x="270" y="630" width="120" height="80" as="geometry" />
        </mxCell>
        <mxCell id="1d8U-x8DRXHJggn5LQJR-8" value="" style="endArrow=classic;html=1;rounded=0;entryX=0.592;entryY=0.05;entryDx=0;entryDy=0;entryPerimeter=0;exitX=0.5;exitY=1;exitDx=0;exitDy=0;" parent="1" source="1d8U-x8DRXHJggn5LQJR-1" target="1d8U-x8DRXHJggn5LQJR-2" edge="1">
          <mxGeometry width="50" height="50" relative="1" as="geometry">
            <mxPoint x="390" y="420" as="sourcePoint" />
            <mxPoint x="440" y="370" as="targetPoint" />
          </mxGeometry>
        </mxCell>
        <mxCell id="1d8U-x8DRXHJggn5LQJR-9" value="" style="endArrow=classic;html=1;rounded=0;entryX=0.583;entryY=0.033;entryDx=0;entryDy=0;entryPerimeter=0;exitX=0.5;exitY=1;exitDx=0;exitDy=0;" parent="1" source="1d8U-x8DRXHJggn5LQJR-2" target="1d8U-x8DRXHJggn5LQJR-3" edge="1">
          <mxGeometry width="50" height="50" relative="1" as="geometry">
            <mxPoint x="360" y="230" as="sourcePoint" />
            <mxPoint x="440" y="370" as="targetPoint" />
          </mxGeometry>
        </mxCell>
        <mxCell id="1d8U-x8DRXHJggn5LQJR-10" value="" style="endArrow=classic;html=1;rounded=0;entryX=0.5;entryY=0;entryDx=0;entryDy=0;exitX=0.5;exitY=1;exitDx=0;exitDy=0;" parent="1" source="1d8U-x8DRXHJggn5LQJR-3" target="1d8U-x8DRXHJggn5LQJR-4" edge="1">
          <mxGeometry width="50" height="50" relative="1" as="geometry">
            <mxPoint x="390" y="420" as="sourcePoint" />
            <mxPoint x="440" y="370" as="targetPoint" />
          </mxGeometry>
        </mxCell>
        <mxCell id="1d8U-x8DRXHJggn5LQJR-11" value="" style="endArrow=none;html=1;rounded=0;" parent="1" edge="1">
          <mxGeometry width="50" height="50" relative="1" as="geometry">
            <mxPoint x="229" y="470" as="sourcePoint" />
            <mxPoint x="479" y="470" as="targetPoint" />
          </mxGeometry>
        </mxCell>
        <mxCell id="1d8U-x8DRXHJggn5LQJR-12" value="" style="endArrow=classic;html=1;rounded=0;entryX=0.617;entryY=-0.05;entryDx=0;entryDy=0;entryPerimeter=0;" parent="1" target="1d8U-x8DRXHJggn5LQJR-5" edge="1">
          <mxGeometry width="50" height="50" relative="1" as="geometry">
            <mxPoint x="230" y="470" as="sourcePoint" />
            <mxPoint x="440" y="370" as="targetPoint" />
          </mxGeometry>
        </mxCell>
        <mxCell id="1d8U-x8DRXHJggn5LQJR-13" value="" style="endArrow=classic;html=1;rounded=0;entryX=0.75;entryY=0;entryDx=0;entryDy=0;" parent="1" target="1d8U-x8DRXHJggn5LQJR-6" edge="1">
          <mxGeometry width="50" height="50" relative="1" as="geometry">
            <mxPoint x="480" y="470" as="sourcePoint" />
            <mxPoint x="440" y="370" as="targetPoint" />
          </mxGeometry>
        </mxCell>
        <mxCell id="1d8U-x8DRXHJggn5LQJR-14" value="" style="endArrow=classic;html=1;rounded=0;entryX=0;entryY=0;entryDx=0;entryDy=0;exitX=0.5;exitY=1;exitDx=0;exitDy=0;" parent="1" source="1d8U-x8DRXHJggn5LQJR-5" target="1d8U-x8DRXHJggn5LQJR-7" edge="1">
          <mxGeometry width="50" height="50" relative="1" as="geometry">
            <mxPoint x="390" y="420" as="sourcePoint" />
            <mxPoint x="440" y="370" as="targetPoint" />
          </mxGeometry>
        </mxCell>
        <mxCell id="1d8U-x8DRXHJggn5LQJR-15" value="" style="endArrow=classic;html=1;rounded=0;exitX=0.433;exitY=1;exitDx=0;exitDy=0;exitPerimeter=0;" parent="1" source="1d8U-x8DRXHJggn5LQJR-6" target="1d8U-x8DRXHJggn5LQJR-7" edge="1">
          <mxGeometry width="50" height="50" relative="1" as="geometry">
            <mxPoint x="390" y="420" as="sourcePoint" />
            <mxPoint x="440" y="370" as="targetPoint" />
          </mxGeometry>
        </mxCell>
        <mxCell id="1d8U-x8DRXHJggn5LQJR-16" value="đúng" style="text;html=1;align=center;verticalAlign=middle;resizable=0;points=[];autosize=1;strokeColor=none;fillColor=none;" parent="1" vertex="1">
          <mxGeometry x="235" y="438" width="50" height="30" as="geometry" />
        </mxCell>
        <mxCell id="1d8U-x8DRXHJggn5LQJR-17" value="sai" style="text;html=1;align=center;verticalAlign=middle;resizable=0;points=[];autosize=1;strokeColor=none;fillColor=none;" parent="1" vertex="1">
          <mxGeometry x="410" y="428" width="40" height="30" as="geometry" />
        </mxCell>
        <mxCell id="MTXntqvWEkEYIifAvNJs-1" value="Bài 2:" style="text;html=1;align=center;verticalAlign=middle;resizable=0;points=[];autosize=1;strokeColor=none;fillColor=none;" parent="1" vertex="1">
          <mxGeometry x="15" y="28" width="50" height="30" as="geometry" />
        </mxCell>
      </root>
    </mxGraphModel>
  </diagram>
  <diagram id="R7IKOnu9atHPoyeYztGe" name="Trang-3">
    <mxGraphModel dx="1434" dy="772" grid="1" gridSize="10" guides="1" tooltips="1" connect="1" arrows="1" fold="1" page="1" pageScale="1" pageWidth="827" pageHeight="1169" math="0" shadow="0">
      <root>
        <mxCell id="0" />
        <mxCell id="1" parent="0" />
        <mxCell id="e8zK5DI7v5Ig_wla5H4P-1" value="Start" style="ellipse;whiteSpace=wrap;html=1;" vertex="1" parent="1">
          <mxGeometry x="300" y="70" width="120" height="80" as="geometry" />
        </mxCell>
        <mxCell id="e8zK5DI7v5Ig_wla5H4P-2" value="Nhập a,b" style="shape=parallelogram;perimeter=parallelogramPerimeter;whiteSpace=wrap;html=1;fixedSize=1;" vertex="1" parent="1">
          <mxGeometry x="294" y="240" width="120" height="60" as="geometry" />
        </mxCell>
        <mxCell id="e8zK5DI7v5Ig_wla5H4P-4" value="hiện thị tổng" style="shape=parallelogram;perimeter=parallelogramPerimeter;whiteSpace=wrap;html=1;fixedSize=1;" vertex="1" parent="1">
          <mxGeometry x="290" y="480" width="120" height="60" as="geometry" />
        </mxCell>
        <mxCell id="e8zK5DI7v5Ig_wla5H4P-5" value="kết thúc" style="ellipse;whiteSpace=wrap;html=1;" vertex="1" parent="1">
          <mxGeometry x="280" y="590" width="120" height="80" as="geometry" />
        </mxCell>
        <mxCell id="e8zK5DI7v5Ig_wla5H4P-6" value="" style="endArrow=classic;html=1;rounded=0;entryX=0.5;entryY=0;entryDx=0;entryDy=0;exitX=0.433;exitY=0.988;exitDx=0;exitDy=0;exitPerimeter=0;" edge="1" parent="1" source="e8zK5DI7v5Ig_wla5H4P-1" target="e8zK5DI7v5Ig_wla5H4P-2">
          <mxGeometry width="50" height="50" relative="1" as="geometry">
            <mxPoint x="360" y="160" as="sourcePoint" />
            <mxPoint x="440" y="370" as="targetPoint" />
          </mxGeometry>
        </mxCell>
        <mxCell id="e8zK5DI7v5Ig_wla5H4P-8" value="" style="endArrow=classic;html=1;rounded=0;exitX=0.5;exitY=1;exitDx=0;exitDy=0;entryX=0.5;entryY=0;entryDx=0;entryDy=0;" edge="1" parent="1" source="e8zK5DI7v5Ig_wla5H4P-2">
          <mxGeometry width="50" height="50" relative="1" as="geometry">
            <mxPoint x="390" y="420" as="sourcePoint" />
            <mxPoint x="354" y="360" as="targetPoint" />
          </mxGeometry>
        </mxCell>
        <mxCell id="e8zK5DI7v5Ig_wla5H4P-9" value="" style="endArrow=classic;html=1;rounded=0;entryX=0.583;entryY=0;entryDx=0;entryDy=0;entryPerimeter=0;exitX=0.5;exitY=1;exitDx=0;exitDy=0;" edge="1" parent="1" target="e8zK5DI7v5Ig_wla5H4P-4">
          <mxGeometry width="50" height="50" relative="1" as="geometry">
            <mxPoint x="354" y="420" as="sourcePoint" />
            <mxPoint x="440" y="370" as="targetPoint" />
          </mxGeometry>
        </mxCell>
        <mxCell id="e8zK5DI7v5Ig_wla5H4P-10" value="" style="endArrow=classic;html=1;rounded=0;exitX=0.5;exitY=1;exitDx=0;exitDy=0;" edge="1" parent="1" source="e8zK5DI7v5Ig_wla5H4P-4" target="e8zK5DI7v5Ig_wla5H4P-5">
          <mxGeometry width="50" height="50" relative="1" as="geometry">
            <mxPoint x="390" y="420" as="sourcePoint" />
            <mxPoint x="440" y="370" as="targetPoint" />
          </mxGeometry>
        </mxCell>
        <mxCell id="e8zK5DI7v5Ig_wla5H4P-12" value="tính tổng =a+b" style="rounded=0;whiteSpace=wrap;html=1;" vertex="1" parent="1">
          <mxGeometry x="300" y="360" width="120" height="60" as="geometry" />
        </mxCell>
        <mxCell id="LvMv9pzDPrcmN_IFIrf5-1" value="Bài 3:" style="text;html=1;align=center;verticalAlign=middle;resizable=0;points=[];autosize=1;strokeColor=none;fillColor=none;" vertex="1" parent="1">
          <mxGeometry x="35" y="18" width="50" height="30" as="geometry" />
        </mxCell>
      </root>
    </mxGraphModel>
  </diagram>
  <diagram name="Trang-4" id="Gojlks-YlSn2AuYUi4W5">
    <mxGraphModel dx="1195" dy="643" grid="1" gridSize="10" guides="1" tooltips="1" connect="1" arrows="1" fold="1" page="1" pageScale="1" pageWidth="827" pageHeight="1169" math="0" shadow="0">
      <root>
        <mxCell id="0" />
        <mxCell id="1" parent="0" />
        <mxCell id="_NzWlRLSCCWMdh2XXwU0-3" value="Start" style="ellipse;whiteSpace=wrap;html=1;" vertex="1" parent="1">
          <mxGeometry x="310" y="40" width="120" height="80" as="geometry" />
        </mxCell>
        <mxCell id="_NzWlRLSCCWMdh2XXwU0-4" value="" style="endArrow=classic;html=1;rounded=0;" edge="1" parent="1" target="_NzWlRLSCCWMdh2XXwU0-5">
          <mxGeometry width="50" height="50" relative="1" as="geometry">
            <mxPoint x="369.58" y="120" as="sourcePoint" />
            <mxPoint x="369.58" y="180" as="targetPoint" />
          </mxGeometry>
        </mxCell>
        <mxCell id="_NzWlRLSCCWMdh2XXwU0-5" value="Nhập số điểm (n)" style="shape=parallelogram;perimeter=parallelogramPerimeter;whiteSpace=wrap;html=1;fixedSize=1;" vertex="1" parent="1">
          <mxGeometry x="309.99999999999994" y="160" width="120" height="60" as="geometry" />
        </mxCell>
        <mxCell id="_NzWlRLSCCWMdh2XXwU0-6" value="" style="endArrow=classic;html=1;rounded=0;" edge="1" parent="1" target="_NzWlRLSCCWMdh2XXwU0-7">
          <mxGeometry width="50" height="50" relative="1" as="geometry">
            <mxPoint x="360" y="220" as="sourcePoint" />
            <mxPoint x="350" y="270" as="targetPoint" />
          </mxGeometry>
        </mxCell>
        <mxCell id="_NzWlRLSCCWMdh2XXwU0-7" value="Nếu n&amp;gt;5" style="rhombus;whiteSpace=wrap;html=1;" vertex="1" parent="1">
          <mxGeometry x="310" y="250" width="100" height="80" as="geometry" />
        </mxCell>
        <mxCell id="_NzWlRLSCCWMdh2XXwU0-10" value="" style="endArrow=classic;html=1;rounded=0;" edge="1" parent="1" source="_NzWlRLSCCWMdh2XXwU0-7">
          <mxGeometry width="50" height="50" relative="1" as="geometry">
            <mxPoint x="320" y="300" as="sourcePoint" />
            <mxPoint x="280" y="340" as="targetPoint" />
          </mxGeometry>
        </mxCell>
        <mxCell id="_NzWlRLSCCWMdh2XXwU0-11" value="" style="endArrow=classic;html=1;rounded=0;exitX=1;exitY=1;exitDx=0;exitDy=0;" edge="1" parent="1" source="_NzWlRLSCCWMdh2XXwU0-7">
          <mxGeometry width="50" height="50" relative="1" as="geometry">
            <mxPoint x="390" y="310" as="sourcePoint" />
            <mxPoint x="430" y="350" as="targetPoint" />
          </mxGeometry>
        </mxCell>
        <mxCell id="_NzWlRLSCCWMdh2XXwU0-12" value="đạt" style="shape=parallelogram;perimeter=parallelogramPerimeter;whiteSpace=wrap;html=1;fixedSize=1;" vertex="1" parent="1">
          <mxGeometry x="210" y="340" width="120" height="60" as="geometry" />
        </mxCell>
        <mxCell id="_NzWlRLSCCWMdh2XXwU0-13" value="không đạt&lt;div&gt;&lt;br&gt;&lt;/div&gt;" style="shape=parallelogram;perimeter=parallelogramPerimeter;whiteSpace=wrap;html=1;fixedSize=1;" vertex="1" parent="1">
          <mxGeometry x="380" y="350" width="120" height="60" as="geometry" />
        </mxCell>
        <mxCell id="_NzWlRLSCCWMdh2XXwU0-14" value="" style="endArrow=classic;html=1;rounded=0;" edge="1" parent="1">
          <mxGeometry width="50" height="50" relative="1" as="geometry">
            <mxPoint x="240" y="400" as="sourcePoint" />
            <mxPoint x="300" y="480" as="targetPoint" />
          </mxGeometry>
        </mxCell>
        <mxCell id="_NzWlRLSCCWMdh2XXwU0-15" value="" style="endArrow=classic;html=1;rounded=0;" edge="1" parent="1">
          <mxGeometry width="50" height="50" relative="1" as="geometry">
            <mxPoint x="460" y="410" as="sourcePoint" />
            <mxPoint x="390" y="490" as="targetPoint" />
            <Array as="points" />
          </mxGeometry>
        </mxCell>
        <mxCell id="_NzWlRLSCCWMdh2XXwU0-16" value="kết thúc&amp;nbsp;" style="ellipse;whiteSpace=wrap;html=1;" vertex="1" parent="1">
          <mxGeometry x="280" y="470" width="120" height="80" as="geometry" />
        </mxCell>
        <mxCell id="TgUmUfYbD3S5OtB0Kbbd-1" value="Bài 4:" style="text;html=1;align=center;verticalAlign=middle;resizable=0;points=[];autosize=1;strokeColor=none;fillColor=none;" vertex="1" parent="1">
          <mxGeometry x="35" y="18" width="50" height="30" as="geometry" />
        </mxCell>
      </root>
    </mxGraphModel>
  </diagram>
  <diagram id="09jflP0cDdzJ0GcUv5vO" name="Trang-5">
    <mxGraphModel dx="2620" dy="965" grid="1" gridSize="10" guides="1" tooltips="1" connect="1" arrows="1" fold="1" page="1" pageScale="1" pageWidth="827" pageHeight="1169" math="0" shadow="0">
      <root>
        <mxCell id="0" />
        <mxCell id="1" parent="0" />
        <mxCell id="lsqqYgRWJG7XHICMj31s-22" value="" style="edgeStyle=orthogonalEdgeStyle;rounded=0;orthogonalLoop=1;jettySize=auto;html=1;" edge="1" parent="1" source="lsqqYgRWJG7XHICMj31s-1" target="lsqqYgRWJG7XHICMj31s-2">
          <mxGeometry relative="1" as="geometry" />
        </mxCell>
        <mxCell id="lsqqYgRWJG7XHICMj31s-1" value="Start" style="ellipse;whiteSpace=wrap;html=1;" vertex="1" parent="1">
          <mxGeometry x="140" y="30" width="120" height="80" as="geometry" />
        </mxCell>
        <mxCell id="lsqqYgRWJG7XHICMj31s-23" value="" style="edgeStyle=orthogonalEdgeStyle;rounded=0;orthogonalLoop=1;jettySize=auto;html=1;" edge="1" parent="1" source="lsqqYgRWJG7XHICMj31s-2" target="lsqqYgRWJG7XHICMj31s-3">
          <mxGeometry relative="1" as="geometry" />
        </mxCell>
        <mxCell id="lsqqYgRWJG7XHICMj31s-2" value="nhập số điểm (n)" style="shape=parallelogram;perimeter=parallelogramPerimeter;whiteSpace=wrap;html=1;fixedSize=1;" vertex="1" parent="1">
          <mxGeometry x="140" y="160" width="120" height="60" as="geometry" />
        </mxCell>
        <mxCell id="lsqqYgRWJG7XHICMj31s-24" value="" style="edgeStyle=orthogonalEdgeStyle;rounded=0;orthogonalLoop=1;jettySize=auto;html=1;" edge="1" parent="1" source="lsqqYgRWJG7XHICMj31s-3" target="lsqqYgRWJG7XHICMj31s-14">
          <mxGeometry relative="1" as="geometry" />
        </mxCell>
        <mxCell id="lsqqYgRWJG7XHICMj31s-3" value="nếu n&amp;lt;4" style="rhombus;whiteSpace=wrap;html=1;" vertex="1" parent="1">
          <mxGeometry x="140" y="280" width="100" height="80" as="geometry" />
        </mxCell>
        <mxCell id="lsqqYgRWJG7XHICMj31s-19" style="edgeStyle=orthogonalEdgeStyle;rounded=0;orthogonalLoop=1;jettySize=auto;html=1;exitX=1;exitY=0.5;exitDx=0;exitDy=0;entryX=0;entryY=0.75;entryDx=0;entryDy=0;" edge="1" parent="1" source="lsqqYgRWJG7XHICMj31s-5" target="lsqqYgRWJG7XHICMj31s-8">
          <mxGeometry relative="1" as="geometry" />
        </mxCell>
        <mxCell id="lsqqYgRWJG7XHICMj31s-27" value="" style="edgeStyle=orthogonalEdgeStyle;rounded=0;orthogonalLoop=1;jettySize=auto;html=1;" edge="1" parent="1" source="lsqqYgRWJG7XHICMj31s-5" target="lsqqYgRWJG7XHICMj31s-6">
          <mxGeometry relative="1" as="geometry" />
        </mxCell>
        <mxCell id="lsqqYgRWJG7XHICMj31s-5" value="nếu 6&amp;lt;n&amp;lt;=8" style="rhombus;whiteSpace=wrap;html=1;" vertex="1" parent="1">
          <mxGeometry x="140" y="520" width="100" height="80" as="geometry" />
        </mxCell>
        <mxCell id="lsqqYgRWJG7XHICMj31s-20" style="edgeStyle=orthogonalEdgeStyle;rounded=0;orthogonalLoop=1;jettySize=auto;html=1;entryX=0;entryY=0.5;entryDx=0;entryDy=0;" edge="1" parent="1" source="lsqqYgRWJG7XHICMj31s-6" target="lsqqYgRWJG7XHICMj31s-9">
          <mxGeometry relative="1" as="geometry" />
        </mxCell>
        <mxCell id="lsqqYgRWJG7XHICMj31s-28" value="" style="edgeStyle=orthogonalEdgeStyle;rounded=0;orthogonalLoop=1;jettySize=auto;html=1;" edge="1" parent="1" source="lsqqYgRWJG7XHICMj31s-6" target="lsqqYgRWJG7XHICMj31s-7">
          <mxGeometry relative="1" as="geometry" />
        </mxCell>
        <mxCell id="lsqqYgRWJG7XHICMj31s-6" value="nếu 8&amp;lt;n&amp;lt;=9" style="rhombus;whiteSpace=wrap;html=1;" vertex="1" parent="1">
          <mxGeometry x="140" y="630" width="100" height="80" as="geometry" />
        </mxCell>
        <mxCell id="lsqqYgRWJG7XHICMj31s-21" style="edgeStyle=orthogonalEdgeStyle;rounded=0;orthogonalLoop=1;jettySize=auto;html=1;exitX=1;exitY=0.5;exitDx=0;exitDy=0;entryX=0;entryY=0.5;entryDx=0;entryDy=0;" edge="1" parent="1" source="lsqqYgRWJG7XHICMj31s-7" target="lsqqYgRWJG7XHICMj31s-10">
          <mxGeometry relative="1" as="geometry" />
        </mxCell>
        <mxCell id="lsqqYgRWJG7XHICMj31s-7" value="nếu 9&amp;lt;n&amp;lt;=10" style="rhombus;whiteSpace=wrap;html=1;" vertex="1" parent="1">
          <mxGeometry x="150" y="740" width="100" height="80" as="geometry" />
        </mxCell>
        <mxCell id="lsqqYgRWJG7XHICMj31s-8" value="khá" style="shape=parallelogram;perimeter=parallelogramPerimeter;whiteSpace=wrap;html=1;fixedSize=1;" vertex="1" parent="1">
          <mxGeometry x="360" y="520" width="120" height="60" as="geometry" />
        </mxCell>
        <mxCell id="lsqqYgRWJG7XHICMj31s-9" value="giỏi" style="shape=parallelogram;perimeter=parallelogramPerimeter;whiteSpace=wrap;html=1;fixedSize=1;" vertex="1" parent="1">
          <mxGeometry x="354" y="640" width="120" height="60" as="geometry" />
        </mxCell>
        <mxCell id="lsqqYgRWJG7XHICMj31s-10" value="xuất sắc" style="shape=parallelogram;perimeter=parallelogramPerimeter;whiteSpace=wrap;html=1;fixedSize=1;" vertex="1" parent="1">
          <mxGeometry x="350" y="750" width="120" height="60" as="geometry" />
        </mxCell>
        <mxCell id="lsqqYgRWJG7XHICMj31s-11" value="chưa đạt" style="shape=parallelogram;perimeter=parallelogramPerimeter;whiteSpace=wrap;html=1;fixedSize=1;" vertex="1" parent="1">
          <mxGeometry x="360" y="280" width="120" height="60" as="geometry" />
        </mxCell>
        <mxCell id="lsqqYgRWJG7XHICMj31s-12" value="trung bình" style="shape=parallelogram;perimeter=parallelogramPerimeter;whiteSpace=wrap;html=1;fixedSize=1;" vertex="1" parent="1">
          <mxGeometry x="370" y="400" width="120" height="60" as="geometry" />
        </mxCell>
        <mxCell id="lsqqYgRWJG7XHICMj31s-13" value="kết thúc" style="ellipse;whiteSpace=wrap;html=1;" vertex="1" parent="1">
          <mxGeometry x="220" y="850" width="120" height="80" as="geometry" />
        </mxCell>
        <mxCell id="lsqqYgRWJG7XHICMj31s-26" value="" style="edgeStyle=orthogonalEdgeStyle;rounded=0;orthogonalLoop=1;jettySize=auto;html=1;" edge="1" parent="1" source="lsqqYgRWJG7XHICMj31s-14" target="lsqqYgRWJG7XHICMj31s-5">
          <mxGeometry relative="1" as="geometry" />
        </mxCell>
        <mxCell id="lsqqYgRWJG7XHICMj31s-14" value="nếu 4&amp;lt;=n&amp;lt;=6" style="rhombus;whiteSpace=wrap;html=1;" vertex="1" parent="1">
          <mxGeometry x="150" y="400" width="90" height="80" as="geometry" />
        </mxCell>
        <mxCell id="lsqqYgRWJG7XHICMj31s-15" value="" style="endArrow=classic;html=1;rounded=0;entryX=0;entryY=0.75;entryDx=0;entryDy=0;exitX=1;exitY=0.5;exitDx=0;exitDy=0;" edge="1" parent="1" source="lsqqYgRWJG7XHICMj31s-3" target="lsqqYgRWJG7XHICMj31s-11">
          <mxGeometry width="50" height="50" relative="1" as="geometry">
            <mxPoint x="420" y="510" as="sourcePoint" />
            <mxPoint x="470" y="460" as="targetPoint" />
          </mxGeometry>
        </mxCell>
        <mxCell id="lsqqYgRWJG7XHICMj31s-17" value="" style="endArrow=classic;html=1;rounded=0;entryX=0;entryY=0.5;entryDx=0;entryDy=0;exitX=1;exitY=0.5;exitDx=0;exitDy=0;" edge="1" parent="1" source="lsqqYgRWJG7XHICMj31s-14" target="lsqqYgRWJG7XHICMj31s-12">
          <mxGeometry width="50" height="50" relative="1" as="geometry">
            <mxPoint x="420" y="510" as="sourcePoint" />
            <mxPoint x="470" y="460" as="targetPoint" />
          </mxGeometry>
        </mxCell>
        <mxCell id="lsqqYgRWJG7XHICMj31s-31" value="" style="endArrow=none;html=1;rounded=0;entryX=1;entryY=0.75;entryDx=0;entryDy=0;" edge="1" parent="1" target="lsqqYgRWJG7XHICMj31s-11">
          <mxGeometry width="50" height="50" relative="1" as="geometry">
            <mxPoint x="710" y="890" as="sourcePoint" />
            <mxPoint x="470" y="460" as="targetPoint" />
            <Array as="points">
              <mxPoint x="710" y="320" />
            </Array>
          </mxGeometry>
        </mxCell>
        <mxCell id="lsqqYgRWJG7XHICMj31s-33" value="" style="endArrow=classic;html=1;rounded=0;entryX=1;entryY=0.5;entryDx=0;entryDy=0;" edge="1" parent="1" target="lsqqYgRWJG7XHICMj31s-13">
          <mxGeometry width="50" height="50" relative="1" as="geometry">
            <mxPoint x="710" y="890" as="sourcePoint" />
            <mxPoint x="470" y="460" as="targetPoint" />
          </mxGeometry>
        </mxCell>
        <mxCell id="lsqqYgRWJG7XHICMj31s-34" value="đúng" style="text;html=1;align=center;verticalAlign=middle;resizable=0;points=[];autosize=1;strokeColor=none;fillColor=none;" vertex="1" parent="1">
          <mxGeometry x="275" y="288" width="50" height="30" as="geometry" />
        </mxCell>
        <mxCell id="lsqqYgRWJG7XHICMj31s-35" value="đúng" style="text;html=1;align=center;verticalAlign=middle;resizable=0;points=[];autosize=1;strokeColor=none;fillColor=none;" vertex="1" parent="1">
          <mxGeometry x="285" y="408" width="50" height="30" as="geometry" />
        </mxCell>
        <mxCell id="lsqqYgRWJG7XHICMj31s-36" value="đúng" style="text;html=1;align=center;verticalAlign=middle;resizable=0;points=[];autosize=1;strokeColor=none;fillColor=none;" vertex="1" parent="1">
          <mxGeometry x="265" y="518" width="50" height="30" as="geometry" />
        </mxCell>
        <mxCell id="lsqqYgRWJG7XHICMj31s-37" value="đúng" style="text;html=1;align=center;verticalAlign=middle;resizable=0;points=[];autosize=1;strokeColor=none;fillColor=none;" vertex="1" parent="1">
          <mxGeometry x="265" y="628" width="50" height="30" as="geometry" />
        </mxCell>
        <mxCell id="lsqqYgRWJG7XHICMj31s-38" value="đúng" style="text;html=1;align=center;verticalAlign=middle;resizable=0;points=[];autosize=1;strokeColor=none;fillColor=none;" vertex="1" parent="1">
          <mxGeometry x="265" y="738" width="50" height="30" as="geometry" />
        </mxCell>
        <mxCell id="lsqqYgRWJG7XHICMj31s-39" value="sai" style="text;html=1;align=center;verticalAlign=middle;resizable=0;points=[];autosize=1;strokeColor=none;fillColor=none;" vertex="1" parent="1">
          <mxGeometry x="140" y="358" width="40" height="30" as="geometry" />
        </mxCell>
        <mxCell id="lsqqYgRWJG7XHICMj31s-40" value="sai" style="text;html=1;align=center;verticalAlign=middle;resizable=0;points=[];autosize=1;strokeColor=none;fillColor=none;" vertex="1" parent="1">
          <mxGeometry x="140" y="488" width="40" height="30" as="geometry" />
        </mxCell>
        <mxCell id="lsqqYgRWJG7XHICMj31s-41" value="sai" style="text;html=1;align=center;verticalAlign=middle;resizable=0;points=[];autosize=1;strokeColor=none;fillColor=none;" vertex="1" parent="1">
          <mxGeometry x="140" y="608" width="40" height="30" as="geometry" />
        </mxCell>
        <mxCell id="lsqqYgRWJG7XHICMj31s-42" value="sai" style="text;html=1;align=center;verticalAlign=middle;resizable=0;points=[];autosize=1;strokeColor=none;fillColor=none;" vertex="1" parent="1">
          <mxGeometry x="130" y="708" width="40" height="30" as="geometry" />
        </mxCell>
        <mxCell id="9J0Fo-QV4vtaaPrhWQA8-1" value="Bài 5:" style="text;html=1;align=center;verticalAlign=middle;resizable=0;points=[];autosize=1;strokeColor=none;fillColor=none;" vertex="1" parent="1">
          <mxGeometry x="-5" y="8" width="50" height="30" as="geometry" />
        </mxCell>
      </root>
    </mxGraphModel>
  </diagram>
  <diagram id="x5Y-fBO_GDo0AL0rLoQB" name="Trang-6">
    <mxGraphModel dx="3088" dy="772" grid="1" gridSize="10" guides="1" tooltips="1" connect="1" arrows="1" fold="1" page="1" pageScale="1" pageWidth="827" pageHeight="1169" math="0" shadow="0">
      <root>
        <mxCell id="0" />
        <mxCell id="1" parent="0" />
        <mxCell id="LHhCXDDdiLyzMuPW9Ok--1" value="Start" style="ellipse;whiteSpace=wrap;html=1;" vertex="1" parent="1">
          <mxGeometry x="310" y="70" width="120" height="80" as="geometry" />
        </mxCell>
        <mxCell id="LHhCXDDdiLyzMuPW9Ok--2" value="" style="endArrow=classic;html=1;rounded=0;exitX=0.417;exitY=1.013;exitDx=0;exitDy=0;exitPerimeter=0;" edge="1" parent="1" source="LHhCXDDdiLyzMuPW9Ok--1">
          <mxGeometry width="50" height="50" relative="1" as="geometry">
            <mxPoint x="390" y="420" as="sourcePoint" />
            <mxPoint x="360" y="210" as="targetPoint" />
          </mxGeometry>
        </mxCell>
        <mxCell id="LHhCXDDdiLyzMuPW9Ok--3" value="nhập a và b" style="shape=parallelogram;perimeter=parallelogramPerimeter;whiteSpace=wrap;html=1;fixedSize=1;" vertex="1" parent="1">
          <mxGeometry x="294" y="210" width="120" height="60" as="geometry" />
        </mxCell>
        <mxCell id="LHhCXDDdiLyzMuPW9Ok--4" value="a=0" style="rhombus;whiteSpace=wrap;html=1;" vertex="1" parent="1">
          <mxGeometry x="310" y="310" width="80" height="80" as="geometry" />
        </mxCell>
        <mxCell id="LHhCXDDdiLyzMuPW9Ok--6" value="" style="rounded=0;whiteSpace=wrap;html=1;" vertex="1" parent="1">
          <mxGeometry x="-1010" y="380" width="120" height="60" as="geometry" />
        </mxCell>
        <mxCell id="LHhCXDDdiLyzMuPW9Ok--7" value="b=0" style="rhombus;whiteSpace=wrap;html=1;" vertex="1" parent="1">
          <mxGeometry x="500" y="310" width="80" height="80" as="geometry" />
        </mxCell>
        <mxCell id="LHhCXDDdiLyzMuPW9Ok--8" value="x=-b/a" style="rounded=0;whiteSpace=wrap;html=1;" vertex="1" parent="1">
          <mxGeometry x="80" y="310" width="120" height="60" as="geometry" />
        </mxCell>
        <mxCell id="LHhCXDDdiLyzMuPW9Ok--9" value="phương trình có nghiệm x" style="shape=parallelogram;perimeter=parallelogramPerimeter;whiteSpace=wrap;html=1;fixedSize=1;" vertex="1" parent="1">
          <mxGeometry x="70" y="450" width="120" height="60" as="geometry" />
        </mxCell>
        <mxCell id="LHhCXDDdiLyzMuPW9Ok--10" value="phương trình vô nghiệm" style="shape=parallelogram;perimeter=parallelogramPerimeter;whiteSpace=wrap;html=1;fixedSize=1;" vertex="1" parent="1">
          <mxGeometry x="400" y="440" width="120" height="60" as="geometry" />
        </mxCell>
        <mxCell id="LHhCXDDdiLyzMuPW9Ok--11" value="phương trình vô số nghiệm" style="shape=parallelogram;perimeter=parallelogramPerimeter;whiteSpace=wrap;html=1;fixedSize=1;" vertex="1" parent="1">
          <mxGeometry x="570" y="440" width="120" height="60" as="geometry" />
        </mxCell>
        <mxCell id="LHhCXDDdiLyzMuPW9Ok--12" value="kết thúc" style="ellipse;whiteSpace=wrap;html=1;" vertex="1" parent="1">
          <mxGeometry x="310" y="590" width="120" height="80" as="geometry" />
        </mxCell>
        <mxCell id="LHhCXDDdiLyzMuPW9Ok--13" value="" style="endArrow=classic;html=1;rounded=0;entryX=0.5;entryY=0;entryDx=0;entryDy=0;exitX=0.5;exitY=1;exitDx=0;exitDy=0;" edge="1" parent="1" source="LHhCXDDdiLyzMuPW9Ok--3" target="LHhCXDDdiLyzMuPW9Ok--4">
          <mxGeometry width="50" height="50" relative="1" as="geometry">
            <mxPoint x="400" y="420" as="sourcePoint" />
            <mxPoint x="450" y="370" as="targetPoint" />
          </mxGeometry>
        </mxCell>
        <mxCell id="LHhCXDDdiLyzMuPW9Ok--14" value="" style="endArrow=classic;html=1;rounded=0;entryX=1;entryY=0.5;entryDx=0;entryDy=0;exitX=0;exitY=0.5;exitDx=0;exitDy=0;" edge="1" parent="1" source="LHhCXDDdiLyzMuPW9Ok--4" target="LHhCXDDdiLyzMuPW9Ok--8">
          <mxGeometry width="50" height="50" relative="1" as="geometry">
            <mxPoint x="400" y="420" as="sourcePoint" />
            <mxPoint x="450" y="370" as="targetPoint" />
          </mxGeometry>
        </mxCell>
        <mxCell id="LHhCXDDdiLyzMuPW9Ok--15" value="" style="endArrow=classic;html=1;rounded=0;entryX=0;entryY=0.5;entryDx=0;entryDy=0;exitX=1;exitY=0.5;exitDx=0;exitDy=0;" edge="1" parent="1" source="LHhCXDDdiLyzMuPW9Ok--4" target="LHhCXDDdiLyzMuPW9Ok--7">
          <mxGeometry width="50" height="50" relative="1" as="geometry">
            <mxPoint x="400" y="420" as="sourcePoint" />
            <mxPoint x="450" y="370" as="targetPoint" />
          </mxGeometry>
        </mxCell>
        <mxCell id="LHhCXDDdiLyzMuPW9Ok--16" value="" style="endArrow=classic;html=1;rounded=0;entryX=0.625;entryY=-0.05;entryDx=0;entryDy=0;entryPerimeter=0;exitX=0.583;exitY=1.033;exitDx=0;exitDy=0;exitPerimeter=0;" edge="1" parent="1" source="LHhCXDDdiLyzMuPW9Ok--8" target="LHhCXDDdiLyzMuPW9Ok--9">
          <mxGeometry width="50" height="50" relative="1" as="geometry">
            <mxPoint x="400" y="420" as="sourcePoint" />
            <mxPoint x="450" y="370" as="targetPoint" />
          </mxGeometry>
        </mxCell>
        <mxCell id="LHhCXDDdiLyzMuPW9Ok--17" value="" style="endArrow=none;html=1;rounded=0;" edge="1" parent="1">
          <mxGeometry width="50" height="50" relative="1" as="geometry">
            <mxPoint x="450" y="390" as="sourcePoint" />
            <mxPoint x="650" y="390" as="targetPoint" />
          </mxGeometry>
        </mxCell>
        <mxCell id="LHhCXDDdiLyzMuPW9Ok--18" value="" style="endArrow=classic;html=1;rounded=0;entryX=0.425;entryY=0.017;entryDx=0;entryDy=0;entryPerimeter=0;" edge="1" parent="1" target="LHhCXDDdiLyzMuPW9Ok--10">
          <mxGeometry width="50" height="50" relative="1" as="geometry">
            <mxPoint x="450" y="390" as="sourcePoint" />
            <mxPoint x="450" y="370" as="targetPoint" />
          </mxGeometry>
        </mxCell>
        <mxCell id="LHhCXDDdiLyzMuPW9Ok--19" value="" style="endArrow=classic;html=1;rounded=0;entryX=0.642;entryY=0;entryDx=0;entryDy=0;entryPerimeter=0;" edge="1" parent="1" target="LHhCXDDdiLyzMuPW9Ok--11">
          <mxGeometry width="50" height="50" relative="1" as="geometry">
            <mxPoint x="647" y="390" as="sourcePoint" />
            <mxPoint x="560" y="370" as="targetPoint" />
          </mxGeometry>
        </mxCell>
        <mxCell id="LHhCXDDdiLyzMuPW9Ok--20" value="" style="endArrow=none;html=1;rounded=0;" edge="1" parent="1">
          <mxGeometry width="50" height="50" relative="1" as="geometry">
            <mxPoint x="120" y="560" as="sourcePoint" />
            <mxPoint x="640" y="560" as="targetPoint" />
          </mxGeometry>
        </mxCell>
        <mxCell id="LHhCXDDdiLyzMuPW9Ok--21" value="" style="endArrow=none;html=1;rounded=0;entryX=0.375;entryY=1.067;entryDx=0;entryDy=0;entryPerimeter=0;" edge="1" parent="1" target="LHhCXDDdiLyzMuPW9Ok--10">
          <mxGeometry width="50" height="50" relative="1" as="geometry">
            <mxPoint x="450" y="560" as="sourcePoint" />
            <mxPoint x="560" y="370" as="targetPoint" />
          </mxGeometry>
        </mxCell>
        <mxCell id="LHhCXDDdiLyzMuPW9Ok--22" value="" style="endArrow=none;html=1;rounded=0;entryX=0.558;entryY=1.033;entryDx=0;entryDy=0;entryPerimeter=0;" edge="1" parent="1" target="LHhCXDDdiLyzMuPW9Ok--11">
          <mxGeometry width="50" height="50" relative="1" as="geometry">
            <mxPoint x="640" y="560" as="sourcePoint" />
            <mxPoint x="560" y="370" as="targetPoint" />
          </mxGeometry>
        </mxCell>
        <mxCell id="LHhCXDDdiLyzMuPW9Ok--23" value="" style="endArrow=none;html=1;rounded=0;entryX=0.5;entryY=1;entryDx=0;entryDy=0;" edge="1" parent="1" target="LHhCXDDdiLyzMuPW9Ok--9">
          <mxGeometry width="50" height="50" relative="1" as="geometry">
            <mxPoint x="130" y="560" as="sourcePoint" />
            <mxPoint x="560" y="370" as="targetPoint" />
          </mxGeometry>
        </mxCell>
        <mxCell id="LHhCXDDdiLyzMuPW9Ok--24" value="" style="endArrow=classic;html=1;rounded=0;entryX=0.6;entryY=-0.012;entryDx=0;entryDy=0;entryPerimeter=0;" edge="1" parent="1" target="LHhCXDDdiLyzMuPW9Ok--12">
          <mxGeometry width="50" height="50" relative="1" as="geometry">
            <mxPoint x="380" y="560" as="sourcePoint" />
            <mxPoint x="560" y="370" as="targetPoint" />
          </mxGeometry>
        </mxCell>
        <mxCell id="LHhCXDDdiLyzMuPW9Ok--25" value="sai" style="text;html=1;align=center;verticalAlign=middle;resizable=0;points=[];autosize=1;strokeColor=none;fillColor=none;" vertex="1" parent="1">
          <mxGeometry x="230" y="308" width="40" height="30" as="geometry" />
        </mxCell>
        <mxCell id="LHhCXDDdiLyzMuPW9Ok--26" value="đúng" style="text;html=1;align=center;verticalAlign=middle;resizable=0;points=[];autosize=1;strokeColor=none;fillColor=none;" vertex="1" parent="1">
          <mxGeometry x="435" y="318" width="50" height="30" as="geometry" />
        </mxCell>
        <mxCell id="LHhCXDDdiLyzMuPW9Ok--27" value="sai&lt;div&gt;&lt;br&gt;&lt;/div&gt;" style="text;html=1;align=center;verticalAlign=middle;resizable=0;points=[];autosize=1;strokeColor=none;fillColor=none;" vertex="1" parent="1">
          <mxGeometry x="450" y="360" width="40" height="40" as="geometry" />
        </mxCell>
        <mxCell id="LHhCXDDdiLyzMuPW9Ok--29" value="đúng" style="text;html=1;align=center;verticalAlign=middle;resizable=0;points=[];autosize=1;strokeColor=none;fillColor=none;" vertex="1" parent="1">
          <mxGeometry x="595" y="358" width="50" height="30" as="geometry" />
        </mxCell>
        <mxCell id="wa0yOTAweMPuccfWz4fq-1" value="Bài 6:" style="text;html=1;align=center;verticalAlign=middle;resizable=0;points=[];autosize=1;strokeColor=none;fillColor=none;" vertex="1" parent="1">
          <mxGeometry x="45" y="18" width="50" height="30" as="geometry" />
        </mxCell>
      </root>
    </mxGraphModel>
  </diagram>
</mxfile>
